<svg width="221" height="46" viewBox="0 0 221 46" fill="none" xmlns="http://www.w3.org/2000/svg">
<path d="M49.4 38.32C47.672 38.32 46.0507 38 44.536 37.36C43.0427 36.6987 41.7307 35.792 40.6 34.64C39.4907 33.4667 38.616 32.1013 37.976 30.544C37.3573 28.9867 37.048 27.3013 37.048 25.488C37.048 23.696 37.3573 22.032 37.976 20.496C38.616 18.9387 39.4907 17.584 40.6 16.432C41.7307 15.2587 43.0427 14.3413 44.536 13.68C46.0293 13.0187 47.6507 12.688 49.4 12.688C51.0427 12.688 52.4507 12.9013 53.624 13.328C54.8187 13.7547 56.0133 14.4587 57.208 15.44C57.3787 15.568 57.5067 15.7067 57.592 15.856C57.6987 15.984 57.7627 16.1227 57.784 16.272C57.8267 16.4 57.848 16.56 57.848 16.752C57.848 17.1573 57.6987 17.4987 57.4 17.776C57.1227 18.032 56.7813 18.1813 56.376 18.224C55.9707 18.2453 55.576 18.1067 55.192 17.808C54.4027 17.1253 53.5813 16.6027 52.728 16.24C51.896 15.8773 50.7867 15.696 49.4 15.696C48.1413 15.696 46.9573 15.952 45.848 16.464C44.7387 16.976 43.7573 17.68 42.904 18.576C42.072 19.472 41.4213 20.5173 40.952 21.712C40.4827 22.8853 40.248 24.144 40.248 25.488C40.248 26.8533 40.4827 28.1333 40.952 29.328C41.4213 30.5013 42.072 31.536 42.904 32.432C43.7573 33.328 44.7387 34.032 45.848 34.544C46.9573 35.0347 48.1413 35.28 49.4 35.28C50.488 35.28 51.512 35.0987 52.472 34.736C53.4533 34.352 54.392 33.8293 55.288 33.168C55.672 32.8907 56.0453 32.7733 56.408 32.816C56.792 32.8373 57.112 32.9867 57.368 33.264C57.624 33.52 57.752 33.8827 57.752 34.352C57.752 34.5653 57.7093 34.7787 57.624 34.992C57.5387 35.184 57.4107 35.3653 57.24 35.536C56.088 36.4533 54.8507 37.1467 53.528 37.616C52.2267 38.0853 50.8507 38.32 49.4 38.32ZM66.915 38C65.9763 38 65.1443 37.744 64.419 37.232C63.6937 36.72 63.1283 36.0267 62.723 35.152C62.3177 34.256 62.115 33.232 62.115 32.08V14.608C62.115 14.1387 62.2643 13.7547 62.563 13.456C62.8617 13.1573 63.2457 13.008 63.715 13.008C64.1843 13.008 64.5683 13.1573 64.867 13.456C65.1657 13.7547 65.315 14.1387 65.315 14.608V32.08C65.315 32.8693 65.4643 33.52 65.763 34.032C66.0617 34.544 66.4457 34.8 66.915 34.8H67.715C68.1417 34.8 68.483 34.9493 68.739 35.248C69.0163 35.5467 69.155 35.9307 69.155 36.4C69.155 36.8693 68.9523 37.2533 68.547 37.552C68.1417 37.8507 67.619 38 66.979 38H66.915ZM79.604 38.128C77.8333 38.128 76.2547 37.7547 74.868 37.008C73.5027 36.24 72.4253 35.1947 71.636 33.872C70.868 32.528 70.484 30.992 70.484 29.264C70.484 27.5147 70.8467 25.9787 71.572 24.656C72.3187 23.312 73.3427 22.2667 74.644 21.52C75.9453 20.752 77.4387 20.368 79.124 20.368C80.788 20.368 82.2173 20.7413 83.412 21.488C84.6067 22.2133 85.5133 23.2267 86.132 24.528C86.772 25.808 87.092 27.2907 87.092 28.976C87.092 29.3813 86.9533 29.7227 86.676 30C86.3987 30.256 86.0467 30.384 85.62 30.384H72.724V27.824H85.524L84.212 28.72C84.1907 27.6533 83.9773 26.704 83.572 25.872C83.1667 25.0187 82.5907 24.3467 81.844 23.856C81.0973 23.3653 80.1907 23.12 79.124 23.12C77.908 23.12 76.8627 23.3867 75.988 23.92C75.1347 24.4533 74.484 25.1893 74.036 26.128C73.588 27.0453 73.364 28.0907 73.364 29.264C73.364 30.4373 73.6307 31.4827 74.164 32.4C74.6973 33.3173 75.4333 34.0427 76.372 34.576C77.3107 35.1093 78.388 35.376 79.604 35.376C80.2653 35.376 80.9373 35.2587 81.62 35.024C82.324 34.768 82.8893 34.48 83.316 34.16C83.636 33.9253 83.9773 33.808 84.34 33.808C84.724 33.7867 85.0547 33.8933 85.332 34.128C85.6947 34.448 85.8867 34.8 85.908 35.184C85.9293 35.568 85.7587 35.8987 85.396 36.176C84.6707 36.752 83.764 37.2213 82.676 37.584C81.6093 37.9467 80.5853 38.128 79.604 38.128ZM97.926 38.128C96.3687 38.128 94.9713 37.744 93.734 36.976C92.4967 36.1867 91.5153 35.1307 90.79 33.808C90.086 32.464 89.734 30.9493 89.734 29.264C89.734 27.5787 90.118 26.064 90.886 24.72C91.6753 23.376 92.7313 22.32 94.054 21.552C95.398 20.7627 96.902 20.368 98.566 20.368C100.23 20.368 101.723 20.7627 103.046 21.552C104.369 22.32 105.414 23.376 106.182 24.72C106.971 26.064 107.366 27.5787 107.366 29.264H106.118C106.118 30.9493 105.755 32.464 105.03 33.808C104.326 35.1307 103.355 36.1867 102.118 36.976C100.881 37.744 99.4833 38.128 97.926 38.128ZM98.566 35.248C99.654 35.248 100.625 34.992 101.478 34.48C102.331 33.9467 103.003 33.232 103.494 32.336C103.985 31.4187 104.23 30.3947 104.23 29.264C104.23 28.112 103.985 27.088 103.494 26.192C103.003 25.2747 102.331 24.56 101.478 24.048C100.625 23.5147 99.654 23.248 98.566 23.248C97.4993 23.248 96.5287 23.5147 95.654 24.048C94.8007 24.56 94.118 25.2747 93.606 26.192C93.1153 27.088 92.87 28.112 92.87 29.264C92.87 30.3947 93.1153 31.4187 93.606 32.336C94.118 33.232 94.8007 33.9467 95.654 34.48C96.5287 34.992 97.4993 35.248 98.566 35.248ZM105.734 38.032C105.265 38.032 104.87 37.8827 104.55 37.584C104.251 37.264 104.102 36.8693 104.102 36.4V31.504L104.71 28.112L107.366 29.264V36.4C107.366 36.8693 107.206 37.264 106.886 37.584C106.587 37.8827 106.203 38.032 105.734 38.032ZM113.792 27.056C113.792 25.776 114.101 24.6347 114.72 23.632C115.36 22.608 116.213 21.7973 117.28 21.2C118.346 20.6027 119.52 20.304 120.8 20.304C122.08 20.304 123.029 20.5173 123.648 20.944C124.288 21.3493 124.533 21.84 124.384 22.416C124.32 22.7147 124.192 22.9493 124 23.12C123.829 23.2693 123.626 23.3653 123.392 23.408C123.157 23.4507 122.901 23.44 122.624 23.376C121.258 23.0987 120.032 23.0773 118.944 23.312C117.856 23.5467 116.992 23.984 116.352 24.624C115.733 25.264 115.424 26.0747 115.424 27.056H113.792ZM113.824 38C113.312 38 112.917 37.872 112.64 37.616C112.362 37.3387 112.224 36.9333 112.224 36.4V22.096C112.224 21.584 112.362 21.1893 112.64 20.912C112.917 20.6347 113.312 20.496 113.824 20.496C114.357 20.496 114.752 20.6347 115.008 20.912C115.285 21.168 115.424 21.5627 115.424 22.096V36.4C115.424 36.912 115.285 37.3067 115.008 37.584C114.752 37.8613 114.357 38 113.824 38ZM136.042 38.32C134.677 38.32 133.376 38.1067 132.138 37.68C130.901 37.2533 129.824 36.656 128.906 35.888C127.989 35.12 127.317 34.2347 126.89 33.232C126.677 32.784 126.677 32.368 126.89 31.984C127.125 31.6 127.509 31.3547 128.042 31.248C128.426 31.1627 128.8 31.2267 129.162 31.44C129.546 31.632 129.834 31.9307 130.026 32.336C130.282 32.8693 130.698 33.36 131.274 33.808C131.872 34.256 132.586 34.6187 133.418 34.896C134.25 35.1733 135.125 35.312 136.042 35.312C137.066 35.312 138.005 35.152 138.858 34.832C139.733 34.512 140.437 34.0533 140.97 33.456C141.504 32.8373 141.77 32.08 141.77 31.184C141.77 30.0533 141.322 29.04 140.426 28.144C139.552 27.248 138.101 26.6933 136.074 26.48C133.429 26.224 131.349 25.4453 129.834 24.144C128.32 22.8427 127.562 21.232 127.562 19.312C127.562 17.904 127.957 16.7093 128.746 15.728C129.536 14.7467 130.602 14 131.946 13.488C133.312 12.976 134.826 12.72 136.49 12.72C137.792 12.72 138.922 12.9013 139.882 13.264C140.864 13.6267 141.717 14.128 142.442 14.768C143.168 15.408 143.797 16.1653 144.33 17.04C144.629 17.5093 144.746 17.9573 144.682 18.384C144.64 18.7893 144.437 19.1093 144.074 19.344C143.669 19.6 143.232 19.6533 142.762 19.504C142.293 19.3547 141.941 19.0773 141.706 18.672C141.365 18.0533 140.949 17.5307 140.458 17.104C139.968 16.6773 139.392 16.3467 138.73 16.112C138.069 15.856 137.29 15.728 136.394 15.728C134.816 15.7067 133.493 16.0053 132.426 16.624C131.36 17.2213 130.826 18.1493 130.826 19.408C130.826 20.048 130.986 20.6667 131.306 21.264C131.648 21.84 132.256 22.3413 133.13 22.768C134.026 23.1947 135.306 23.4933 136.97 23.664C139.509 23.92 141.482 24.6987 142.89 26C144.32 27.28 145.034 28.976 145.034 31.088C145.034 32.304 144.778 33.36 144.266 34.256C143.776 35.152 143.104 35.9093 142.25 36.528C141.418 37.1253 140.458 37.5733 139.37 37.872C138.304 38.1707 137.194 38.32 136.042 38.32ZM151.45 31.632C150.98 31.632 150.586 31.4827 150.266 31.184C149.967 30.864 149.818 30.4693 149.818 30V14.64C149.818 14.1493 149.967 13.7547 150.266 13.456C150.586 13.1573 150.98 13.008 151.45 13.008C151.94 13.008 152.335 13.1573 152.634 13.456C152.932 13.7547 153.082 14.1493 153.082 14.64V30C153.082 30.4693 152.932 30.864 152.634 31.184C152.335 31.4827 151.94 31.632 151.45 31.632ZM164.602 38.032C164.132 38.032 163.738 37.8827 163.418 37.584C163.119 37.264 162.97 36.8693 162.97 36.4V28.528C162.97 27.312 162.746 26.32 162.298 25.552C161.85 24.784 161.242 24.2187 160.474 23.856C159.727 23.472 158.863 23.28 157.882 23.28C156.986 23.28 156.175 23.4613 155.45 23.824C154.724 24.1867 154.148 24.6773 153.722 25.296C153.295 25.8933 153.082 26.5867 153.082 27.376H151.066C151.066 26.032 151.386 24.8373 152.026 23.792C152.687 22.7253 153.583 21.8827 154.714 21.264C155.844 20.6453 157.114 20.336 158.522 20.336C159.994 20.336 161.306 20.656 162.458 21.296C163.631 21.9147 164.548 22.832 165.21 24.048C165.892 25.264 166.234 26.7573 166.234 28.528V36.4C166.234 36.8693 166.074 37.264 165.753 37.584C165.455 37.8827 165.071 38.032 164.602 38.032ZM151.45 38.032C150.98 38.032 150.586 37.8827 150.266 37.584C149.967 37.264 149.818 36.8693 149.818 36.4V22.128C149.818 21.6373 149.967 21.2427 150.266 20.944C150.586 20.6453 150.98 20.496 151.45 20.496C151.94 20.496 152.335 20.6453 152.634 20.944C152.932 21.2427 153.082 21.6373 153.082 22.128V36.4C153.082 36.8693 152.932 37.264 152.634 37.584C152.335 37.8827 151.94 38.032 151.45 38.032ZM173.613 38C173.144 38 172.749 37.8507 172.429 37.552C172.131 37.232 171.981 36.8373 171.981 36.368V22.128C171.981 21.6373 172.131 21.2427 172.429 20.944C172.749 20.6453 173.144 20.496 173.613 20.496C174.104 20.496 174.499 20.6453 174.797 20.944C175.096 21.2427 175.245 21.6373 175.245 22.128V36.368C175.245 36.8373 175.096 37.232 174.797 37.552C174.499 37.8507 174.104 38 173.613 38ZM173.613 17.648C173.037 17.648 172.536 17.4453 172.109 17.04C171.704 16.6133 171.501 16.112 171.501 15.536C171.501 14.96 171.704 14.4693 172.109 14.064C172.536 13.6373 173.037 13.424 173.613 13.424C174.189 13.424 174.68 13.6373 175.085 14.064C175.512 14.4693 175.725 14.96 175.725 15.536C175.725 16.112 175.512 16.6133 175.085 17.04C174.68 17.4453 174.189 17.648 173.613 17.648ZM196.102 38.032C195.632 38.032 195.238 37.8827 194.918 37.584C194.619 37.264 194.47 36.8693 194.47 36.4V28.528C194.47 27.312 194.246 26.32 193.798 25.552C193.35 24.784 192.742 24.2187 191.974 23.856C191.227 23.472 190.363 23.28 189.382 23.28C188.486 23.28 187.675 23.4613 186.95 23.824C186.224 24.1867 185.648 24.6773 185.222 25.296C184.795 25.8933 184.582 26.5867 184.582 27.376H182.566C182.566 26.032 182.886 24.8373 183.526 23.792C184.187 22.7253 185.083 21.8827 186.214 21.264C187.344 20.6453 188.614 20.336 190.022 20.336C191.494 20.336 192.806 20.656 193.958 21.296C195.131 21.9147 196.048 22.832 196.71 24.048C197.392 25.264 197.734 26.7573 197.734 28.528V36.4C197.734 36.8693 197.574 37.264 197.253 37.584C196.955 37.8827 196.571 38.032 196.102 38.032ZM182.95 38.032C182.48 38.032 182.086 37.8827 181.766 37.584C181.467 37.264 181.318 36.8693 181.318 36.4V22.128C181.318 21.6373 181.467 21.2427 181.766 20.944C182.086 20.6453 182.48 20.496 182.95 20.496C183.44 20.496 183.835 20.6453 184.134 20.944C184.432 21.2427 184.582 21.6373 184.582 22.128V36.4C184.582 36.8693 184.432 37.264 184.134 37.584C183.835 37.8827 183.44 38.032 182.95 38.032ZM211.354 38.128C209.583 38.128 208.005 37.7547 206.618 37.008C205.253 36.24 204.175 35.1947 203.386 33.872C202.618 32.528 202.234 30.992 202.234 29.264C202.234 27.5147 202.597 25.9787 203.322 24.656C204.069 23.312 205.093 22.2667 206.394 21.52C207.695 20.752 209.189 20.368 210.874 20.368C212.538 20.368 213.967 20.7413 215.162 21.488C216.357 22.2133 217.263 23.2267 217.882 24.528C218.522 25.808 218.842 27.2907 218.842 28.976C218.842 29.3813 218.703 29.7227 218.426 30C218.149 30.256 217.797 30.384 217.37 30.384H204.474V27.824H217.274L215.962 28.72C215.941 27.6533 215.727 26.704 215.322 25.872C214.917 25.0187 214.341 24.3467 213.594 23.856C212.847 23.3653 211.941 23.12 210.874 23.12C209.658 23.12 208.613 23.3867 207.738 23.92C206.885 24.4533 206.234 25.1893 205.786 26.128C205.338 27.0453 205.114 28.0907 205.114 29.264C205.114 30.4373 205.381 31.4827 205.914 32.4C206.447 33.3173 207.183 34.0427 208.122 34.576C209.061 35.1093 210.138 35.376 211.354 35.376C212.015 35.376 212.687 35.2587 213.37 35.024C214.074 34.768 214.639 34.48 215.066 34.16C215.386 33.9253 215.727 33.808 216.09 33.808C216.474 33.7867 216.805 33.8933 217.082 34.128C217.445 34.448 217.637 34.8 217.658 35.184C217.679 35.568 217.509 35.8987 217.146 36.176C216.421 36.752 215.514 37.2213 214.426 37.584C213.359 37.9467 212.335 38.128 211.354 38.128Z" fill="white"/>
<ellipse cx="9.0356" cy="21.2298" rx="2.76412" ry="2.7471" fill="white" fill-opacity="0.8"/>
<ellipse cx="14.3125" cy="13.4879" rx="2.01027" ry="1.99789" fill="white" fill-opacity="0.8"/>
<ellipse cx="5.6436" cy="10.3662" rx="1.63334" ry="1.62328" fill="white" fill-opacity="0.8"/>
<ellipse cx="9.16179" cy="21.4233" rx="2.13591" ry="2.12276" fill="white"/>
<ellipse cx="5.76911" cy="10.31" rx="1.25642" ry="1.24868" fill="white"/>
<ellipse cx="14.3127" cy="13.8063" rx="1.75898" ry="1.74815" fill="white"/>
<path d="M24.6714 2L15.6252 29.2212" stroke="white" stroke-width="3.3461" stroke-linecap="round"/>
<path d="M9.28711 29.29L1.99989 42.526" stroke="white" stroke-width="3.3461" stroke-linecap="round"/>
<path d="M19.0869 43.2751L1.99964 42.5259" stroke="white" stroke-width="3.3461" stroke-linecap="round"/>
<path d="M19.0869 43.2751L20.8459 32.7862" stroke="white" stroke-width="3.3461" stroke-linecap="round"/>
<path d="M9.28711 29.29L20.8462 32.7863" stroke="white" stroke-width="3.3461" stroke-linecap="round"/>
<path d="M17.3281 27.0422L20.8461 32.7862" stroke="white" stroke-width="3.3461" stroke-linecap="round"/>
<path d="M17.3281 27.0422L9.28705 29.2899" stroke="white" stroke-width="3.3461" stroke-linecap="round"/>
<path d="M18.082 29.7893L9.28711 29.2898" stroke="white" stroke-width="3.3461" stroke-linecap="round"/>
</svg>
