<svg width="22" height="22" viewBox="0 0 22 22" fill="none" xmlns="http://www.w3.org/2000/svg">
<path fill-rule="evenodd" clip-rule="evenodd" d="M16.4138 14.8394L20.8574 19.2892C21.0558 19.5099 21.046 19.8479 20.8352 20.0568L20.0575 20.8355C19.9532 20.9408 19.8113 21 19.6632 21C19.5151 21 19.3731 20.9408 19.2688 20.8355L14.8252 16.3857C14.7023 16.2625 14.5907 16.1285 14.4919 15.9852L13.6587 14.8727C12.2802 15.9751 10.5683 16.5753 8.80409 16.5748C5.16878 16.5874 2.00983 14.0762 1.19744 10.5279C0.385043 6.97956 2.13601 3.3411 5.41372 1.76657C8.69143 0.192047 12.6211 1.10168 14.8763 3.95694C17.1314 6.81221 17.1102 10.8511 14.8252 13.6824L15.9361 14.45C16.1096 14.5612 16.2698 14.6918 16.4138 14.8394ZM3.24976 8.7874C3.24976 11.8594 5.73659 14.3497 8.80426 14.3497C10.2774 14.3497 11.6902 13.7636 12.7319 12.7205C13.7736 11.6774 14.3588 10.2626 14.3588 8.7874C14.3588 5.71545 11.8719 3.22514 8.80426 3.22514C5.73659 3.22514 3.24976 5.71545 3.24976 8.7874Z" fill="#707070"/>
<path d="M20.8574 19.2892L21.1363 19.0385L21.1297 19.0311L21.1227 19.0242L20.8574 19.2892ZM16.4138 14.8394L16.1453 15.1013L16.1484 15.1043L16.4138 14.8394ZM20.8352 20.0568L20.5713 19.7903L20.5698 19.7918L20.8352 20.0568ZM20.0575 20.8355L19.7922 20.5705L19.7911 20.5716L20.0575 20.8355ZM19.2688 20.8355L19.5352 20.5716L19.5341 20.5705L19.2688 20.8355ZM14.8252 16.3857L14.5597 16.6505L14.5598 16.6506L14.8252 16.3857ZM14.4919 15.9852L14.8006 15.7723L14.7964 15.7662L14.7921 15.7604L14.4919 15.9852ZM13.6587 14.8727L13.9589 14.6479L13.7268 14.3381L13.4245 14.5799L13.6587 14.8727ZM8.80409 16.5748L8.80419 16.1998L8.80278 16.1998L8.80409 16.5748ZM1.19744 10.5279L1.56298 10.4442L1.56298 10.4442L1.19744 10.5279ZM5.41372 1.76657L5.25135 1.42855L5.41372 1.76657ZM14.8763 3.95694L14.582 4.18937L14.582 4.18937L14.8763 3.95694ZM14.8252 13.6824L14.5334 13.4469L14.2796 13.7613L14.612 13.9909L14.8252 13.6824ZM15.9361 14.45L15.7228 14.7587L15.7337 14.7657L15.9361 14.45ZM21.1227 19.0242L16.6791 14.5744L16.1484 15.1043L20.592 19.5541L21.1227 19.0242ZM21.0991 20.3232C21.4521 19.9735 21.4684 19.408 21.1363 19.0385L20.5785 19.5399C20.6432 19.6119 20.64 19.7222 20.5713 19.7903L21.0991 20.3232ZM20.3229 21.1005L21.1005 20.3217L20.5698 19.7918L19.7922 20.5705L20.3229 21.1005ZM19.6632 21.375C19.9114 21.375 20.1493 21.2757 20.324 21.0994L19.7911 20.5716C19.7572 20.6058 19.7111 20.625 19.6632 20.625V21.375ZM19.0024 21.0994C19.177 21.2757 19.4149 21.375 19.6632 21.375V20.625C19.6152 20.625 19.5691 20.6058 19.5352 20.5716L19.0024 21.0994ZM14.5598 16.6506L19.0034 21.1005L19.5341 20.5705L15.0905 16.1207L14.5598 16.6506ZM14.1832 16.1981C14.2949 16.36 14.4209 16.5114 14.5597 16.6505L15.0906 16.1208C14.9837 16.0136 14.8866 15.8969 14.8006 15.7723L14.1832 16.1981ZM13.3586 15.0975L14.1918 16.21L14.7921 15.7604L13.9589 14.6479L13.3586 15.0975ZM8.80398 16.9498C10.6534 16.9503 12.4479 16.3211 13.8929 15.1656L13.4245 14.5799C12.1124 15.6291 10.4831 16.2003 8.80419 16.1998L8.80398 16.9498ZM0.831897 10.6116C1.68335 14.3305 4.99439 16.963 8.80539 16.9498L8.80278 16.1998C5.34316 16.2118 2.33632 13.8219 1.56298 10.4442L0.831897 10.6116ZM5.25135 1.42855C1.81548 3.07905 -0.0195365 6.89275 0.831897 10.6116L1.56298 10.4442C0.789622 7.06638 2.45655 3.60314 5.5761 2.10459L5.25135 1.42855ZM15.1706 3.72451C12.8067 0.731663 8.68737 -0.222025 5.25135 1.42855L5.5761 2.10459C8.6955 0.606118 12.4355 1.4717 14.582 4.18937L15.1706 3.72451ZM15.117 13.9179C17.512 10.9503 17.5343 6.7172 15.1706 3.72451L14.582 4.18937C16.7286 6.90722 16.7084 10.7518 14.5334 13.4469L15.117 13.9179ZM16.1493 14.1415L15.0384 13.3739L14.612 13.9909L15.7229 14.7585L16.1493 14.1415ZM16.6822 14.5775C16.5183 14.4096 16.3359 14.2609 16.1384 14.1343L15.7337 14.7657C15.8832 14.8615 16.0213 14.9741 16.1453 15.1012L16.6822 14.5775ZM8.80426 13.9747C5.94419 13.9747 3.62476 11.6527 3.62476 8.7874H2.87476C2.87476 12.066 5.52899 14.7247 8.80426 14.7247V13.9747ZM12.4665 12.4555C11.4952 13.4283 10.1778 13.9747 8.80426 13.9747V14.7247C10.377 14.7247 11.8853 14.099 12.9972 12.9855L12.4665 12.4555ZM13.9838 8.7874C13.9838 10.1633 13.4379 11.4828 12.4665 12.4555L12.9972 12.9855C14.1092 11.872 14.7338 10.3619 14.7338 8.7874H13.9838ZM8.80426 3.60014C11.6643 3.60014 13.9838 5.92206 13.9838 8.7874H14.7338C14.7338 5.50884 12.0795 2.85014 8.80426 2.85014V3.60014ZM3.62476 8.7874C3.62476 5.92206 5.94419 3.60014 8.80426 3.60014V2.85014C5.52899 2.85014 2.87476 5.50884 2.87476 8.7874H3.62476Z" fill="white"/>
</svg>
